<mxfile host="app.diagrams.net" modified="2024-02-19T09:10:32.465Z" agent="Mozilla/5.0 (Windows NT 10.0; Win64; x64) AppleWebKit/537.36 (KHTML, like Gecko) Chrome/121.0.0.0 Safari/537.36" etag="6cktx-Apeo18HxN_MmYy" version="23.1.5" type="github">
  <diagram id="C5RBs43oDa-KdzZeNtuy" name="Page-1">
    <mxGraphModel dx="954" dy="558" grid="1" gridSize="10" guides="1" tooltips="1" connect="1" arrows="1" fold="1" page="1" pageScale="1" pageWidth="827" pageHeight="1169" math="0" shadow="0">
      <root>
        <mxCell id="WIyWlLk6GJQsqaUBKTNV-0" />
        <mxCell id="WIyWlLk6GJQsqaUBKTNV-1" parent="WIyWlLk6GJQsqaUBKTNV-0" />
        <mxCell id="7qvsYo9a1J3gUp_0PV7V-0" value="A01&lt;br&gt;Начало" style="strokeWidth=2;html=1;shape=mxgraph.flowchart.terminator;whiteSpace=wrap;" vertex="1" parent="WIyWlLk6GJQsqaUBKTNV-1">
          <mxGeometry x="480" y="40" width="120" height="40" as="geometry" />
        </mxCell>
        <mxCell id="7qvsYo9a1J3gUp_0PV7V-1" value="Ввод имени файла" style="shape=parallelogram;perimeter=parallelogramPerimeter;whiteSpace=wrap;html=1;fixedSize=1;spacingLeft=10;spacingRight=10;" vertex="1" parent="WIyWlLk6GJQsqaUBKTNV-1">
          <mxGeometry x="480" y="160" width="120" height="40" as="geometry" />
        </mxCell>
        <mxCell id="7qvsYo9a1J3gUp_0PV7V-2" value="f = fopen(filename, &quot;r&quot;)" style="rounded=0;whiteSpace=wrap;html=1;fontSize=11;" vertex="1" parent="WIyWlLk6GJQsqaUBKTNV-1">
          <mxGeometry x="480" y="220.5" width="120" height="40" as="geometry" />
        </mxCell>
        <mxCell id="7qvsYo9a1J3gUp_0PV7V-3" value="Файл не открылся?" style="strokeWidth=1;html=1;shape=mxgraph.flowchart.decision;whiteSpace=wrap;fontSize=10;" vertex="1" parent="WIyWlLk6GJQsqaUBKTNV-1">
          <mxGeometry x="480" y="280.5" width="120" height="40" as="geometry" />
        </mxCell>
        <mxCell id="7qvsYo9a1J3gUp_0PV7V-4" value="" style="endArrow=none;html=1;rounded=0;exitX=0.5;exitY=0;exitDx=0;exitDy=0;entryX=0.5;entryY=1;entryDx=0;entryDy=0;" edge="1" parent="WIyWlLk6GJQsqaUBKTNV-1" source="7qvsYo9a1J3gUp_0PV7V-2" target="7qvsYo9a1J3gUp_0PV7V-1">
          <mxGeometry width="50" height="50" relative="1" as="geometry">
            <mxPoint x="660" y="265" as="sourcePoint" />
            <mxPoint x="610" y="215" as="targetPoint" />
          </mxGeometry>
        </mxCell>
        <mxCell id="7qvsYo9a1J3gUp_0PV7V-5" value="" style="endArrow=none;html=1;rounded=0;entryX=0.5;entryY=1;entryDx=0;entryDy=0;exitX=0.5;exitY=0;exitDx=0;exitDy=0;exitPerimeter=0;" edge="1" parent="WIyWlLk6GJQsqaUBKTNV-1" source="7qvsYo9a1J3gUp_0PV7V-3" target="7qvsYo9a1J3gUp_0PV7V-2">
          <mxGeometry width="50" height="50" relative="1" as="geometry">
            <mxPoint x="640" y="315" as="sourcePoint" />
            <mxPoint x="640" y="275" as="targetPoint" />
          </mxGeometry>
        </mxCell>
        <mxCell id="7qvsYo9a1J3gUp_0PV7V-6" value="&lt;p style=&quot;line-height: 100%;&quot;&gt;&lt;font style=&quot;font-size: 11px;&quot;&gt;Вывод сообщения об ошибке&lt;/font&gt;&lt;/p&gt;" style="shape=parallelogram;perimeter=parallelogramPerimeter;whiteSpace=wrap;html=1;fixedSize=1;spacingLeft=14;spacingRight=8;" vertex="1" parent="WIyWlLk6GJQsqaUBKTNV-1">
          <mxGeometry x="640" y="320.5" width="120" height="40" as="geometry" />
        </mxCell>
        <mxCell id="7qvsYo9a1J3gUp_0PV7V-7" value="" style="endArrow=none;html=1;rounded=0;entryX=1;entryY=0.5;entryDx=0;entryDy=0;entryPerimeter=0;exitX=0.5;exitY=0;exitDx=0;exitDy=0;" edge="1" parent="WIyWlLk6GJQsqaUBKTNV-1" source="7qvsYo9a1J3gUp_0PV7V-6" target="7qvsYo9a1J3gUp_0PV7V-3">
          <mxGeometry width="50" height="50" relative="1" as="geometry">
            <mxPoint x="650" y="300.5" as="sourcePoint" />
            <mxPoint x="650" y="260.5" as="targetPoint" />
            <Array as="points">
              <mxPoint x="700" y="300.5" />
            </Array>
          </mxGeometry>
        </mxCell>
        <mxCell id="7qvsYo9a1J3gUp_0PV7V-8" value="Да" style="text;html=1;strokeColor=none;fillColor=none;align=center;verticalAlign=middle;whiteSpace=wrap;rounded=0;" vertex="1" parent="WIyWlLk6GJQsqaUBKTNV-1">
          <mxGeometry x="590" y="274.5" width="60" height="30" as="geometry" />
        </mxCell>
        <mxCell id="7qvsYo9a1J3gUp_0PV7V-9" value="Ввод имени файла" style="shape=parallelogram;perimeter=parallelogramPerimeter;whiteSpace=wrap;html=1;fixedSize=1;spacingLeft=10;spacingRight=10;" vertex="1" parent="WIyWlLk6GJQsqaUBKTNV-1">
          <mxGeometry x="640" y="380.5" width="120" height="40" as="geometry" />
        </mxCell>
        <mxCell id="7qvsYo9a1J3gUp_0PV7V-10" value="f = fopen(filename, &quot;r&quot;)" style="rounded=0;whiteSpace=wrap;html=1;fontSize=11;" vertex="1" parent="WIyWlLk6GJQsqaUBKTNV-1">
          <mxGeometry x="640" y="440.5" width="120" height="40" as="geometry" />
        </mxCell>
        <mxCell id="7qvsYo9a1J3gUp_0PV7V-11" value="" style="endArrow=none;html=1;rounded=0;entryX=0.5;entryY=1;entryDx=0;entryDy=0;exitX=0.5;exitY=0;exitDx=0;exitDy=0;" edge="1" parent="WIyWlLk6GJQsqaUBKTNV-1" source="7qvsYo9a1J3gUp_0PV7V-10" target="7qvsYo9a1J3gUp_0PV7V-9">
          <mxGeometry width="50" height="50" relative="1" as="geometry">
            <mxPoint x="800" y="450.5" as="sourcePoint" />
            <mxPoint x="800" y="410.5" as="targetPoint" />
          </mxGeometry>
        </mxCell>
        <mxCell id="7qvsYo9a1J3gUp_0PV7V-12" value="" style="endArrow=none;html=1;rounded=0;entryX=0.5;entryY=1;entryDx=0;entryDy=0;exitX=0.5;exitY=0;exitDx=0;exitDy=0;" edge="1" parent="WIyWlLk6GJQsqaUBKTNV-1" source="7qvsYo9a1J3gUp_0PV7V-9" target="7qvsYo9a1J3gUp_0PV7V-6">
          <mxGeometry width="50" height="50" relative="1" as="geometry">
            <mxPoint x="550" y="410.5" as="sourcePoint" />
            <mxPoint x="550" y="370.5" as="targetPoint" />
          </mxGeometry>
        </mxCell>
        <mxCell id="7qvsYo9a1J3gUp_0PV7V-13" value="" style="endArrow=none;html=1;rounded=0;entryX=0.5;entryY=1;entryDx=0;entryDy=0;startArrow=classic;startFill=1;" edge="1" parent="WIyWlLk6GJQsqaUBKTNV-1" target="7qvsYo9a1J3gUp_0PV7V-10">
          <mxGeometry width="50" height="50" relative="1" as="geometry">
            <mxPoint x="540" y="270.5" as="sourcePoint" />
            <mxPoint x="700" y="520.5" as="targetPoint" />
            <Array as="points">
              <mxPoint x="800" y="270.5" />
              <mxPoint x="800" y="500.5" />
              <mxPoint x="700" y="500.5" />
            </Array>
          </mxGeometry>
        </mxCell>
        <mxCell id="7qvsYo9a1J3gUp_0PV7V-14" value="Вывод сообщения" style="shape=parallelogram;perimeter=parallelogramPerimeter;whiteSpace=wrap;html=1;fixedSize=1;spacingLeft=10;spacingRight=10;" vertex="1" parent="WIyWlLk6GJQsqaUBKTNV-1">
          <mxGeometry x="480" y="100" width="120" height="40" as="geometry" />
        </mxCell>
        <mxCell id="7qvsYo9a1J3gUp_0PV7V-15" value="" style="endArrow=none;html=1;rounded=0;entryX=0.5;entryY=1;entryDx=0;entryDy=0;exitX=0.5;exitY=0;exitDx=0;exitDy=0;" edge="1" parent="WIyWlLk6GJQsqaUBKTNV-1" source="7qvsYo9a1J3gUp_0PV7V-1" target="7qvsYo9a1J3gUp_0PV7V-14">
          <mxGeometry width="50" height="50" relative="1" as="geometry">
            <mxPoint x="650" y="180" as="sourcePoint" />
            <mxPoint x="650" y="140" as="targetPoint" />
          </mxGeometry>
        </mxCell>
        <mxCell id="7qvsYo9a1J3gUp_0PV7V-16" value="" style="endArrow=none;html=1;rounded=0;entryX=0.5;entryY=1;entryDx=0;entryDy=0;entryPerimeter=0;exitX=0.5;exitY=0;exitDx=0;exitDy=0;" edge="1" parent="WIyWlLk6GJQsqaUBKTNV-1" source="7qvsYo9a1J3gUp_0PV7V-14" target="7qvsYo9a1J3gUp_0PV7V-0">
          <mxGeometry width="50" height="50" relative="1" as="geometry">
            <mxPoint x="390" y="140" as="sourcePoint" />
            <mxPoint x="390" y="100" as="targetPoint" />
          </mxGeometry>
        </mxCell>
        <mxCell id="7qvsYo9a1J3gUp_0PV7V-17" value="A01&lt;br&gt;Конец" style="strokeWidth=2;html=1;shape=mxgraph.flowchart.terminator;whiteSpace=wrap;" vertex="1" parent="WIyWlLk6GJQsqaUBKTNV-1">
          <mxGeometry x="480" y="500" width="120" height="40" as="geometry" />
        </mxCell>
        <mxCell id="7qvsYo9a1J3gUp_0PV7V-18" value="" style="endArrow=none;html=1;rounded=0;entryX=0.5;entryY=1;entryDx=0;entryDy=0;entryPerimeter=0;exitX=0.5;exitY=0;exitDx=0;exitDy=0;exitPerimeter=0;" edge="1" parent="WIyWlLk6GJQsqaUBKTNV-1" source="7qvsYo9a1J3gUp_0PV7V-17" target="7qvsYo9a1J3gUp_0PV7V-3">
          <mxGeometry width="50" height="50" relative="1" as="geometry">
            <mxPoint x="490" y="420" as="sourcePoint" />
            <mxPoint x="490" y="380" as="targetPoint" />
          </mxGeometry>
        </mxCell>
        <mxCell id="7qvsYo9a1J3gUp_0PV7V-19" value="Начало" style="strokeWidth=2;html=1;shape=mxgraph.flowchart.terminator;whiteSpace=wrap;" vertex="1" parent="WIyWlLk6GJQsqaUBKTNV-1">
          <mxGeometry x="40" y="40" width="120" height="40" as="geometry" />
        </mxCell>
        <mxCell id="7qvsYo9a1J3gUp_0PV7V-20" value="A01" style="swimlane;whiteSpace=wrap;html=1;" vertex="1" parent="WIyWlLk6GJQsqaUBKTNV-1">
          <mxGeometry x="40" y="100" width="120" height="60" as="geometry" />
        </mxCell>
        <mxCell id="7qvsYo9a1J3gUp_0PV7V-21" value="Выбор файла" style="text;html=1;align=center;verticalAlign=middle;resizable=0;points=[];autosize=1;strokeColor=none;fillColor=none;" vertex="1" parent="7qvsYo9a1J3gUp_0PV7V-20">
          <mxGeometry x="10" y="28" width="100" height="30" as="geometry" />
        </mxCell>
        <mxCell id="7qvsYo9a1J3gUp_0PV7V-22" value="&lt;p style=&quot;line-height: 100%;&quot;&gt;&lt;font style=&quot;font-size: 12px;&quot;&gt;Вывод описания программы&lt;/font&gt;&lt;/p&gt;" style="shape=parallelogram;perimeter=parallelogramPerimeter;whiteSpace=wrap;html=1;fixedSize=1;spacingLeft=4;" vertex="1" parent="WIyWlLk6GJQsqaUBKTNV-1">
          <mxGeometry x="40" y="180" width="120" height="40" as="geometry" />
        </mxCell>
        <mxCell id="7qvsYo9a1J3gUp_0PV7V-23" value="tt = 0, CNT = 7" style="rounded=0;whiteSpace=wrap;html=1;" vertex="1" parent="WIyWlLk6GJQsqaUBKTNV-1">
          <mxGeometry x="40" y="241" width="120" height="40" as="geometry" />
        </mxCell>
        <mxCell id="7qvsYo9a1J3gUp_0PV7V-24" value="tt &amp;lt; CNT?" style="strokeWidth=1;html=1;shape=mxgraph.flowchart.decision;whiteSpace=wrap;" vertex="1" parent="WIyWlLk6GJQsqaUBKTNV-1">
          <mxGeometry x="40" y="300" width="120" height="40" as="geometry" />
        </mxCell>
        <mxCell id="7qvsYo9a1J3gUp_0PV7V-25" value="Ввод строчки" style="shape=parallelogram;perimeter=parallelogramPerimeter;whiteSpace=wrap;html=1;fixedSize=1;" vertex="1" parent="WIyWlLk6GJQsqaUBKTNV-1">
          <mxGeometry x="180" y="361" width="120" height="40" as="geometry" />
        </mxCell>
        <mxCell id="7qvsYo9a1J3gUp_0PV7V-26" value="&lt;font style=&quot;font-size: 11px;&quot;&gt;Присвоение полям user данных разделённых ;&lt;/font&gt;" style="rounded=0;whiteSpace=wrap;html=1;" vertex="1" parent="WIyWlLk6GJQsqaUBKTNV-1">
          <mxGeometry x="180" y="420" width="120" height="40" as="geometry" />
        </mxCell>
        <mxCell id="7qvsYo9a1J3gUp_0PV7V-27" value="BLOCK2[tt] = user" style="rounded=0;whiteSpace=wrap;html=1;" vertex="1" parent="WIyWlLk6GJQsqaUBKTNV-1">
          <mxGeometry x="180" y="481" width="120" height="40" as="geometry" />
        </mxCell>
      </root>
    </mxGraphModel>
  </diagram>
</mxfile>
